<svg id="graphsvg" data-name="Layer 1" xmlns="http://www.w3.org/2000/svg" viewBox="0 0 1001.51 303.7"><defs></defs>
  <path class="wwn-1" d="M821.33,39.88a1.17,1.17,0,0,1-.79-.25,1.84,1.84,0,0,1-.49-.74L815.32,25.4a1,1,0,0,1,.08-1,1,1,0,0,1,.91-.38,1.18,1.18,0,0,1,.76.22,1.48,1.48,0,0,1,.43.7l4.29,12.63H821L825.37,25a2,2,0,0,1,.47-.73,1,1,0,0,1,.7-.24,1,1,0,0,1,.69.24,2,2,0,0,1,.45.75L832,37.61h-.73L835.6,25a1.54,1.54,0,0,1,.43-.69,1.15,1.15,0,0,1,.74-.23,1,1,0,0,1,.85.38,1,1,0,0,1,0,1l-4.75,13.51a1.81,1.81,0,0,1-.48.72,1.12,1.12,0,0,1-.77.25,1.16,1.16,0,0,1-.8-.25,1.71,1.71,0,0,1-.46-.74L826.25,27h.49l-4.2,11.93a1.69,1.69,0,0,1-.46.72A1,1,0,0,1,821.33,39.88Z" transform="translate(-815.24 -24.06)"/><path class="wwn-1" d="M841.61,39.88a1.15,1.15,0,0,1-.85-.31,1.18,1.18,0,0,1-.3-.86V25.22a1.21,1.21,0,0,1,2-.87,1.22,1.22,0,0,1,.29.87V30.9h8.69V25.22a1,1,0,0,1,1.15-1.16,1.13,1.13,0,0,1,.83.29,1.22,1.22,0,0,1,.29.87V38.71a1.22,1.22,0,0,1-.29.86,1.1,1.1,0,0,1-.83.31,1.15,1.15,0,0,1-.85-.31,1.18,1.18,0,0,1-.3-.86v-5.9h-8.69v5.9a1.22,1.22,0,0,1-.28.86A1.14,1.14,0,0,1,841.61,39.88Z" transform="translate(-815.24 -24.06)"/><path class="wwn-1" d="M862.2,39.88a1.15,1.15,0,0,1-.85-.31,1.26,1.26,0,0,1-.29-.88v-7l.5,1.46-5.43-7.55a1,1,0,0,1-.22-.69.86.86,0,0,1,.3-.62,1,1,0,0,1,.73-.25,1.31,1.31,0,0,1,.65.17,1.94,1.94,0,0,1,.56.55l4.36,6H862l4.36-6a2.09,2.09,0,0,1,.55-.56,1.2,1.2,0,0,1,.66-.16,1,1,0,0,1,.71.23.8.8,0,0,1,.27.59,1.3,1.3,0,0,1-.28.76l-5.39,7.53.46-1.46v7C863.32,39.48,863,39.88,862.2,39.88Z" transform="translate(-815.24 -24.06)"/><path class="wwn-1" d="M881.69,39.88a1.16,1.16,0,0,1-.78-.25,1.74,1.74,0,0,1-.49-.74L875.69,25.4a1,1,0,0,1,.07-1,1.08,1.08,0,0,1,.92-.38,1.18,1.18,0,0,1,.76.22,1.48,1.48,0,0,1,.43.7l4.29,12.63h-.82L885.74,25a2,2,0,0,1,.46-.73,1,1,0,0,1,.71-.24,1,1,0,0,1,.69.24,2,2,0,0,1,.45.75l4.31,12.56h-.72L896,25a1.46,1.46,0,0,1,.43-.69,1.13,1.13,0,0,1,.74-.23,1,1,0,0,1,.84.38,1,1,0,0,1,.06,1l-4.75,13.51a1.82,1.82,0,0,1-.49.72,1.1,1.1,0,0,1-.77.25,1.15,1.15,0,0,1-.79-.25,1.71,1.71,0,0,1-.46-.74L886.62,27h.48l-4.2,11.93a1.68,1.68,0,0,1-.45.72A1.06,1.06,0,0,1,881.69,39.88Z" transform="translate(-815.24 -24.06)"/><path class="wwn-1" d="M902.06,39.72a1.2,1.2,0,0,1-.91-.32,1.23,1.23,0,0,1-.32-.91v-13a1.12,1.12,0,0,1,1.23-1.23h8a1,1,0,0,1,.71.23.9.9,0,0,1,.24.67.85.85,0,0,1-.95.95H903v4.86h6.58a1,1,0,0,1,.72.24,1,1,0,0,1,.23.69,1,1,0,0,1-.23.69,1,1,0,0,1-.72.23H903v5.1h7.06a1,1,0,0,1,.71.25,1.1,1.1,0,0,1,0,1.37,1,1,0,0,1-.71.23Z" transform="translate(-815.24 -24.06)"/><path class="wwn-1" d="M920.68,39.88a1,1,0,0,1-1.08-1.1V25.2a1.24,1.24,0,0,1,.27-.85,1,1,0,0,1,.74-.29,1.08,1.08,0,0,1,.6.14,2.51,2.51,0,0,1,.5.52l9.06,11.94h-.55V25.14a1.14,1.14,0,0,1,.28-.8,1.24,1.24,0,0,1,1.57,0,1.14,1.14,0,0,1,.27.8V38.8a1.14,1.14,0,0,1-.26.79.86.86,0,0,1-.67.29,1.28,1.28,0,0,1-.65-.16,2,2,0,0,1-.54-.53l-9-11.92h.51V38.78a1.18,1.18,0,0,1-.26.81A1,1,0,0,1,920.68,39.88Z" transform="translate(-815.24 -24.06)"/><path class="wwn-1" d="M937.18,39.72a1.21,1.21,0,0,1-.92-.32,1.23,1.23,0,0,1-.32-.91v-13a1.12,1.12,0,0,1,1.24-1.23h8a1,1,0,0,1,.7.23.9.9,0,0,1,.24.67.84.84,0,0,1-.94.95h-7.07v4.86h6.58a1,1,0,0,1,.72.24,1,1,0,0,1,.23.69,1,1,0,0,1-.23.69,1,1,0,0,1-.72.23h-6.58v5.1h7.07a1,1,0,0,1,.7.25,1.1,1.1,0,0,1,0,1.37,1,1,0,0,1-.7.23Z" transform="translate(-815.24 -24.06)"/><path class="wwn-1" d="M950.13,39.72a1.2,1.2,0,0,1-.91-.32,1.23,1.23,0,0,1-.32-.91v-13a1.12,1.12,0,0,1,1.23-1.23h8a1,1,0,0,1,.71.23.9.9,0,0,1,.24.67.85.85,0,0,1-1,.95H951.1v4.86h6.58a.94.94,0,0,1,.71.24,1,1,0,0,1,.24.69.92.92,0,0,1-.24.69,1,1,0,0,1-.71.23H951.1v5.1h7.06a1,1,0,0,1,.71.25,1.1,1.1,0,0,1,0,1.37,1,1,0,0,1-.71.23Z" transform="translate(-815.24 -24.06)"/><path class="wwn-1" d="M963.09,39.72a1.2,1.2,0,0,1-.91-.32,1.23,1.23,0,0,1-.32-.91v-13a1.12,1.12,0,0,1,1.23-1.23h4.25a8.25,8.25,0,0,1,5.91,2A7.63,7.63,0,0,1,975.32,32a9.76,9.76,0,0,1-.52,3.32,6.35,6.35,0,0,1-1.55,2.43,7,7,0,0,1-2.5,1.5,10.45,10.45,0,0,1-3.41.51Zm1.06-1.91h3.06a7.87,7.87,0,0,0,2.51-.36,4.73,4.73,0,0,0,1.8-1.09,4.64,4.64,0,0,0,1.08-1.83A8.59,8.59,0,0,0,973,32a6,6,0,0,0-1.44-4.38,5.81,5.81,0,0,0-4.3-1.45h-3.06Z" transform="translate(-815.24 -24.06)"/><path class="wwn-1" d="M984.1,39.88a1.14,1.14,0,0,1-.7-.2.75.75,0,0,1-.31-.53,1.42,1.42,0,0,1,.13-.75l6-13.37a1.57,1.57,0,0,1,.56-.75,1.35,1.35,0,0,1,.76-.22,1.31,1.31,0,0,1,.74.22,1.51,1.51,0,0,1,.56.75l6,13.37a1.39,1.39,0,0,1,.16.76.78.78,0,0,1-.29.53,1.31,1.31,0,0,1-1.45-.06,2.09,2.09,0,0,1-.51-.74l-1.54-3.57,1,.62h-9.38l1-.62-1.52,3.57a2.12,2.12,0,0,1-.49.76A1,1,0,0,1,984.1,39.88Zm6.36-13.14-3.32,7.88-.55-.53h7.76l-.5.53-3.35-7.88Z" transform="translate(-815.24 -24.06)"/><path class="wwn-1" d="M816.71,60.26a1,1,0,0,1-.81-.3,1.13,1.13,0,0,1-.28-.82v-9.9a1.05,1.05,0,0,1,.29-.82,1.09,1.09,0,0,1,.81-.28h4.1a4.44,4.44,0,0,1,3,.94,3.32,3.32,0,0,1,1.07,2.64,3.64,3.64,0,0,1-.48,1.91,3.16,3.16,0,0,1-1.4,1.22,5.22,5.22,0,0,1-2.23.43L821,55h.56a2.23,2.23,0,0,1,1.22.34,3,3,0,0,1,.91,1.07l1.27,2.37a1.23,1.23,0,0,1,.19.69.78.78,0,0,1-.26.56,1,1,0,0,1-.69.21,1.3,1.3,0,0,1-.75-.2,1.72,1.72,0,0,1-.51-.6l-1.72-3.16a1.63,1.63,0,0,0-.72-.78,2.51,2.51,0,0,0-1.06-.19h-1.62v3.81a1.18,1.18,0,0,1-.27.82A1,1,0,0,1,816.71,60.26Zm1.08-6.55h2.65a2.8,2.8,0,0,0,1.78-.48,1.75,1.75,0,0,0,.6-1.45,1.73,1.73,0,0,0-.6-1.44,2.8,2.8,0,0,0-1.78-.49h-2.65Z" transform="translate(-815.24 -24.06)"/><path class="wwn-1" d="M828.43,60.12A1,1,0,0,1,827.28,59V49.29a1,1,0,0,1,1.15-1.15h6.07a.91.91,0,0,1,.66.22.85.85,0,0,1,.23.63.89.89,0,0,1-.23.65.91.91,0,0,1-.66.23h-5.13v3.3h4.76a.88.88,0,0,1,.66.22A.87.87,0,0,1,835,54a.84.84,0,0,1-.22.64.88.88,0,0,1-.66.22h-4.76v3.49h5.13a.91.91,0,0,1,.66.22.87.87,0,0,1,.23.65.86.86,0,0,1-.23.64.91.91,0,0,1-.66.22Z" transform="translate(-815.24 -24.06)"/><path class="wwn-1" d="M842.14,60.26a1.29,1.29,0,0,1-.76-.21,1.52,1.52,0,0,1-.48-.64l-4.44-10a1.1,1.1,0,0,1-.1-.75.81.81,0,0,1,.35-.51,1.08,1.08,0,0,1,.65-.19,1.13,1.13,0,0,1,.74.21,1.87,1.87,0,0,1,.42.64l4,9.33h-.73l4-9.35a1.76,1.76,0,0,1,.44-.62A1.09,1.09,0,0,1,847,48a1,1,0,0,1,.62.19.81.81,0,0,1,.32.51,1.34,1.34,0,0,1-.12.75l-4.44,10a1.6,1.6,0,0,1-.47.64A1.21,1.21,0,0,1,842.14,60.26Z" transform="translate(-815.24 -24.06)"/><path class="wwn-1" d="M850.59,60.26a1,1,0,0,1-.81-.3,1.13,1.13,0,0,1-.28-.82v-10a1.13,1.13,0,0,1,.28-.83,1.26,1.26,0,0,1,1.61,0,1.13,1.13,0,0,1,.28.83v10a1.18,1.18,0,0,1-.27.82A1,1,0,0,1,850.59,60.26Z" transform="translate(-815.24 -24.06)"/><path class="wwn-1" d="M859.05,60.26a1.31,1.31,0,0,1-.76-.21,1.61,1.61,0,0,1-.48-.64l-4.44-10a1.16,1.16,0,0,1-.1-.75.86.86,0,0,1,.36-.51,1.07,1.07,0,0,1,.64-.19,1.11,1.11,0,0,1,.74.21,1.62,1.62,0,0,1,.42.64l4,9.33h-.73l4-9.35a1.9,1.9,0,0,1,.44-.62,1.1,1.1,0,0,1,.72-.21,1,1,0,0,1,.62.19.8.8,0,0,1,.31.51,1.18,1.18,0,0,1-.12.75l-4.43,10a1.69,1.69,0,0,1-.47.64A1.25,1.25,0,0,1,859.05,60.26Z" transform="translate(-815.24 -24.06)"/><path class="wwn-1" d="M865.51,60.26a1,1,0,0,1-.65-.19.71.71,0,0,1-.3-.5,1.36,1.36,0,0,1,.12-.71l4.49-9.94a1.62,1.62,0,0,1,.53-.71,1.27,1.27,0,0,1,.72-.21,1.24,1.24,0,0,1,.71.21,1.71,1.71,0,0,1,.54.71l4.5,9.94a1.24,1.24,0,0,1,.14.72.78.78,0,0,1-.29.5,1,1,0,0,1-.63.18,1.11,1.11,0,0,1-.74-.23,1.9,1.9,0,0,1-.47-.71l-1.1-2.56.92.59h-7.18l.92-.59-1.09,2.56a2.29,2.29,0,0,1-.46.72A1,1,0,0,1,865.51,60.26Zm4.88-9.76L868,56.16l-.44-.54h5.68l-.43.54-2.4-5.66Z" transform="translate(-815.24 -24.06)"/><path class="wwn-1" d="M879.14,60.12a1.1,1.1,0,0,1-.81-.29A1.16,1.16,0,0,1,878,59V49.19a1,1,0,0,1,1.09-1.1,1.05,1.05,0,0,1,.8.28,1.09,1.09,0,0,1,.29.82v9.08h4.93a1,1,0,0,1,.7.24.91.91,0,0,1,.25.68,1,1,0,0,1-.25.69,1,1,0,0,1-.7.24Z" transform="translate(-815.24 -24.06)"/><path class="wwn-1" d="M897.57,60.29a5.88,5.88,0,0,1-3-.76,5.24,5.24,0,0,1-2-2.15,7.12,7.12,0,0,1-.71-3.26,7.48,7.48,0,0,1,.41-2.54,5.64,5.64,0,0,1,1.16-1.94,5.12,5.12,0,0,1,1.82-1.24,6.21,6.21,0,0,1,2.37-.43,6,6,0,0,1,3,.75,5.17,5.17,0,0,1,2,2.14,6.91,6.91,0,0,1,.72,3.24,7.49,7.49,0,0,1-.41,2.55,5.5,5.5,0,0,1-1.17,2A5.11,5.11,0,0,1,900,59.86,6.23,6.23,0,0,1,897.57,60.29Zm0-1.87a3.32,3.32,0,0,0,1.88-.51,3.22,3.22,0,0,0,1.19-1.48,5.74,5.74,0,0,0,.42-2.31,4.93,4.93,0,0,0-.91-3.16,3.13,3.13,0,0,0-2.58-1.12,3.35,3.35,0,0,0-1.87.5,3.18,3.18,0,0,0-1.2,1.46,5.94,5.94,0,0,0-.41,2.32,4.86,4.86,0,0,0,.92,3.16A3.09,3.09,0,0,0,897.57,58.42Z" transform="translate(-815.24 -24.06)"/><path class="wwn-1" d="M906.67,60.26a1.13,1.13,0,0,1-.83-.3,1.15,1.15,0,0,1-.3-.86V49.29a1.13,1.13,0,0,1,.3-.85,1.17,1.17,0,0,1,.86-.3h5.93a.9.9,0,0,1,.67.22.89.89,0,0,1,.22.63.93.93,0,0,1-.22.65.91.91,0,0,1-.67.23h-4.91v3.38h4.56a.89.89,0,0,1,.65.23.81.81,0,0,1,.23.62.9.9,0,0,1-.23.66.89.89,0,0,1-.65.23h-4.56V59.1C907.72,59.87,907.37,60.26,906.67,60.26Z" transform="translate(-815.24 -24.06)"/><path class="wwn-1" d="M920.8,60.26A1,1,0,0,1,920,60a1.13,1.13,0,0,1-.28-.82v-9.9a1.05,1.05,0,0,1,.29-.82,1.09,1.09,0,0,1,.81-.28h4.1a4.44,4.44,0,0,1,3,.94A3.32,3.32,0,0,1,929,51.72a3.64,3.64,0,0,1-.48,1.91,3.1,3.1,0,0,1-1.4,1.22,5.22,5.22,0,0,1-2.23.43l.15-.26h.56a2.23,2.23,0,0,1,1.22.34,3,3,0,0,1,.91,1.07L929,58.8a1.23,1.23,0,0,1,.19.69.81.81,0,0,1-.25.56,1,1,0,0,1-.7.21,1.3,1.3,0,0,1-.75-.2,1.72,1.72,0,0,1-.51-.6l-1.72-3.16a1.63,1.63,0,0,0-.72-.78,2.51,2.51,0,0,0-1.06-.19h-1.62v3.81a1.18,1.18,0,0,1-.27.82A1,1,0,0,1,920.8,60.26Zm1.08-6.55h2.66a2.79,2.79,0,0,0,1.77-.48,1.76,1.76,0,0,0,.61-1.45,1.74,1.74,0,0,0-.61-1.44,2.79,2.79,0,0,0-1.77-.49h-2.66Z" transform="translate(-815.24 -24.06)"/><path class="wwn-1" d="M932.53,60.12a1.19,1.19,0,0,1-.86-.29,1.17,1.17,0,0,1-.3-.86V49.29a1.13,1.13,0,0,1,.3-.85,1.15,1.15,0,0,1,.86-.3h6.06a.89.89,0,0,1,.66.22.85.85,0,0,1,.23.63.89.89,0,0,1-.23.65.9.9,0,0,1-.66.23h-5.13v3.3h4.76a.88.88,0,0,1,.66.22.87.87,0,0,1,.22.65.84.84,0,0,1-.22.64.88.88,0,0,1-.66.22h-4.76v3.49h5.13a.89.89,0,0,1,.66.22.87.87,0,0,1,.23.65.86.86,0,0,1-.23.64.89.89,0,0,1-.66.22Z" transform="translate(-815.24 -24.06)"/>
  <path class="wwn-1" d="M946.23,60.26a1.29,1.29,0,0,1-.76-.21,1.52,1.52,0,0,1-.48-.64l-4.44-10a1.1,1.1,0,0,1-.1-.75.81.81,0,0,1,.35-.51,1.08,1.08,0,0,1,.65-.19,1.13,1.13,0,0,1,.74.21,1.87,1.87,0,0,1,.42.64l4,9.33h-.73l4-9.35a1.76,1.76,0,0,1,.44-.62,1.09,1.09,0,0,1,.71-.21,1,1,0,0,1,.62.19.81.81,0,0,1,.32.51,1.34,1.34,0,0,1-.12.75l-4.44,10a1.6,1.6,0,0,1-.47.64A1.21,1.21,0,0,1,946.23,60.26Z" transform="translate(-815.24 -24.06)"/><path class="wwn-1" d="M954.74,60.12A1,1,0,0,1,953.59,59V49.29a1,1,0,0,1,1.15-1.15h6.07a.91.91,0,0,1,.66.22.85.85,0,0,1,.23.63.89.89,0,0,1-.23.65.91.91,0,0,1-.66.23h-5.13v3.3h4.76a.89.89,0,0,1,.66.22.87.87,0,0,1,.22.65.84.84,0,0,1-.22.64.89.89,0,0,1-.66.22h-4.76v3.49h5.13a.91.91,0,0,1,.66.22.87.87,0,0,1,.23.65.86.86,0,0,1-.23.64.91.91,0,0,1-.66.22Z" transform="translate(-815.24 -24.06)"/><path class="wwn-1" d="M964.76,60.26A1,1,0,0,1,964,60a1.08,1.08,0,0,1-.26-.79V49.09a1.13,1.13,0,0,1,.26-.81.91.91,0,0,1,.69-.28.94.94,0,0,1,.58.15,2.37,2.37,0,0,1,.47.48l6.51,8.45h-.44V49a1.1,1.1,0,0,1,.26-.77,1,1,0,0,1,.76-.27,1,1,0,0,1,.75.27,1.1,1.1,0,0,1,.25.77v10.2a1.14,1.14,0,0,1-.23.75.83.83,0,0,1-.65.27,1.12,1.12,0,0,1-.62-.15,2.6,2.6,0,0,1-.5-.5l-6.5-8.45h.43v8a1.12,1.12,0,0,1-.26.79A1,1,0,0,1,964.76,60.26Z" transform="translate(-815.24 -24.06)"/><path class="wwn-1" d="M981.43,60.29a6.9,6.9,0,0,1-2.18-.32,4.24,4.24,0,0,1-1.59-1,4,4,0,0,1-1-1.59,6.73,6.73,0,0,1-.32-2.21v-6.1a1.12,1.12,0,0,1,.28-.84,1.34,1.34,0,0,1,1.61,0,1.12,1.12,0,0,1,.28.84v6.08a3.51,3.51,0,0,0,.74,2.43,2.81,2.81,0,0,0,2.15.8,2.75,2.75,0,0,0,2.14-.8,3.51,3.51,0,0,0,.74-2.43V49.11a1.12,1.12,0,0,1,.28-.84,1.31,1.31,0,0,1,1.59,0,1.12,1.12,0,0,1,.28.84v6.1a6.32,6.32,0,0,1-.56,2.8,3.75,3.75,0,0,1-1.7,1.71A6,6,0,0,1,981.43,60.29Z" transform="translate(-815.24 -24.06)"/><path class="wwn-1" d="M990.15,60.12A1,1,0,0,1,989,59V49.29a1,1,0,0,1,1.15-1.15h6.07a.91.91,0,0,1,.66.22.85.85,0,0,1,.23.63.89.89,0,0,1-.23.65.91.91,0,0,1-.66.23h-5.13v3.3h4.76a.89.89,0,0,1,.66.22.87.87,0,0,1,.22.65.84.84,0,0,1-.22.64.89.89,0,0,1-.66.22h-4.76v3.49h5.13a.91.91,0,0,1,.66.22.87.87,0,0,1,.23.65.86.86,0,0,1-.23.64.91.91,0,0,1-.66.22Z" transform="translate(-815.24 -24.06)"/>
       <line class="ll-1" x1="800" y1="197.94" y2="197.94"/><line class="ll-1" x1="800" y1="266.48" y2="266.48"/><line class="ll-1" x1="800" y1="331.78" y2="331.78"/><line class="ll-1" x1="800" y1="133.42" y2="133.42"/><line class="ll-1" x1="800" y1="66.89" y2="66.89"/><line class="ll-1" x1="800" y1="0.36" y2="0.36"/>
  
<polyline class="tre-1" points="891.81 38.35 901.42 18.88 911.03 38.35"/>
  <polyline class="tre-2" points="891.81 38.35 901.42 58.88 911.03 38.35"/>
  <path class="asd-1" d="M816.63,16.18a1,1,0,0,1-.73-.25,1,1,0,0,1-.26-.74V4.37a1,1,0,0,1,.26-.74,1,1,0,0,1,.75-.26h6.41a.77.77,0,0,1,.58.19.7.7,0,0,1,.19.54.78.78,0,0,1-.19.58.77.77,0,0,1-.58.2h-5.55V8.93h5.19a.8.8,0,0,1,.57.19.73.73,0,0,1,.2.55.77.77,0,0,1-.2.57.76.76,0,0,1-.57.2h-5.19v4.75C817.51,15.85,817.22,16.18,816.63,16.18Z" transform="translate(-815.64 -3.24)"/><path class="asd-1" d="M826.57,16.06a.9.9,0,0,1-1-1V4.25a1,1,0,0,1,.25-.71,1.08,1.08,0,0,1,1.38,0,.93.93,0,0,1,.25.71v10.2h5.58a.84.84,0,0,1,.61.21.79.79,0,0,1,.21.59.8.8,0,0,1-.21.59.84.84,0,0,1-.61.22Z" transform="translate(-815.64 -3.24)"/><path class="asd-1" d="M835.15,16.18a.9.9,0,0,1-.57-.16.59.59,0,0,1-.25-.43,1.15,1.15,0,0,1,.1-.61L839.31,4a1.25,1.25,0,0,1,.46-.61,1.14,1.14,0,0,1,1.23,0,1.3,1.3,0,0,1,.45.61l4.88,11a1.12,1.12,0,0,1,.13.62.62.62,0,0,1-.24.43A1.09,1.09,0,0,1,845,16a1.56,1.56,0,0,1-.42-.61l-1.26-2.91.85.5h-7.67l.83-.5-1.24,2.91a1.66,1.66,0,0,1-.4.62A.83.83,0,0,1,835.15,16.18Zm5.21-10.74-2.72,6.44-.45-.43h6.35l-.41.43-2.74-6.44Z" transform="translate(-815.64 -3.24)"/><path class="asd-1" d="M851.12,16.18a.9.9,0,0,1-.69-.25,1,1,0,0,1-.25-.7V4.93h-3.81a.89.89,0,0,1-.6-.2.8.8,0,0,1-.21-.59.78.78,0,0,1,.21-.58.88.88,0,0,1,.6-.19h9.48a.9.9,0,0,1,.62.19.78.78,0,0,1,.21.58.8.8,0,0,1-.21.59.91.91,0,0,1-.62.2H852v10.3a1,1,0,0,1-.23.7A.87.87,0,0,1,851.12,16.18Z" transform="translate(-815.64 -3.24)"/><path class="asd-1" d="M859,16.06a.94.94,0,0,1-.7-.26.92.92,0,0,1-.25-.7V4.25a1,1,0,0,1,.24-.71.94.94,0,0,1,.69-.25,1,1,0,0,1,.7.25,1,1,0,0,1,.24.71v10.2h5.58a.84.84,0,0,1,.61.21.79.79,0,0,1,.22.59.81.81,0,0,1-.22.59.84.84,0,0,1-.61.22Z" transform="translate(-815.64 -3.24)"/><path class="asd-1" d="M869,16.18a.94.94,0,0,1-.7-.25,1,1,0,0,1-.24-.7v-11a1,1,0,0,1,.24-.71,1,1,0,0,1,.7-.24.93.93,0,0,1,.69.24,1,1,0,0,1,.24.71v11a1,1,0,0,1-.23.7A.91.91,0,0,1,869,16.18Z" transform="translate(-815.64 -3.24)"/><path class="asd-1" d="M873.73,16.18a.8.8,0,0,1-.88-.9V4.18a1,1,0,0,1,.22-.7.78.78,0,0,1,.6-.24.88.88,0,0,1,.5.12,2,2,0,0,1,.4.42L882,13.55h-.45V4.12a1,1,0,0,1,.22-.65.9.9,0,0,1,.64-.23.86.86,0,0,1,.65.23.92.92,0,0,1,.22.65V15.3a.94.94,0,0,1-.21.65.72.72,0,0,1-.55.23,1.07,1.07,0,0,1-.53-.12,1.81,1.81,0,0,1-.44-.44l-7.38-9.75h.41v9.41a1,1,0,0,1-.21.67A.85.85,0,0,1,873.73,16.18Z" transform="translate(-815.64 -3.24)"/><path class="asd-1" d="M887.23,16.06a1,1,0,0,1-.75-.26,1.05,1.05,0,0,1-.26-.75V4.37a1,1,0,0,1,.26-.74,1,1,0,0,1,.75-.26h6.57a.77.77,0,0,1,.57.19.67.67,0,0,1,.2.54.74.74,0,0,1-.2.58.77.77,0,0,1-.57.2H888v4h5.38a.79.79,0,0,1,.59.19.82.82,0,0,1,.19.56.81.81,0,0,1-.19.57.79.79,0,0,1-.59.19H888v4.17h5.78a.77.77,0,0,1,.57.2.9.9,0,0,1,0,1.13.81.81,0,0,1-.57.19Z" transform="translate(-815.64 -3.24)"/><path class="asd-1" d="M897.83,16.06a.91.91,0,0,1-1-1V4.37a1,1,0,0,1,.26-.74,1,1,0,0,1,.75-.26h3.47A6.72,6.72,0,0,1,906.14,5a6.21,6.21,0,0,1,1.7,4.7,8.13,8.13,0,0,1-.43,2.72,5.24,5.24,0,0,1-1.27,2,5.6,5.6,0,0,1-2,1.22,8.18,8.18,0,0,1-2.79.43Zm.86-1.57h2.51a6.39,6.39,0,0,0,2.06-.3,3.55,3.55,0,0,0,1.46-.89,3.64,3.64,0,0,0,.89-1.49,7,7,0,0,0,.28-2.11,4.88,4.88,0,0,0-1.18-3.58,4.73,4.73,0,0,0-3.51-1.19h-2.51Z" transform="translate(-815.64 -3.24)"/><path class="asd-1" d="M916,16.18a.94.94,0,0,1-.7-.25,1,1,0,0,1-.24-.7V4.32a.93.93,0,0,1,.25-.71,1,1,0,0,1,.7-.24h4.31a4.69,4.69,0,0,1,3.17,1,3.46,3.46,0,0,1,1.11,2.75,3.78,3.78,0,0,1-.5,2,3.25,3.25,0,0,1-1.47,1.26,5.57,5.57,0,0,1-2.31.43l.16-.25H921a2.19,2.19,0,0,1,1.25.36,3.33,3.33,0,0,1,1,1.15l1.55,2.88a1.2,1.2,0,0,1,.17.63.64.64,0,0,1-.22.47.84.84,0,0,1-.58.18,1,1,0,0,1-.64-.17,1.51,1.51,0,0,1-.44-.51L921.14,12a2.13,2.13,0,0,0-.86-.95,2.92,2.92,0,0,0-1.28-.24h-2v4.41a1,1,0,0,1-.23.7A.91.91,0,0,1,916,16.18ZM917,9.41H920a3.23,3.23,0,0,0,2.07-.57,2.09,2.09,0,0,0,.7-1.71,2,2,0,0,0-.7-1.69A3.17,3.17,0,0,0,920,4.86H917Z" transform="translate(-815.64 -3.24)"/><path class="asd-1" d="M928.29,16.06a.91.91,0,0,1-1-1V4.37a1,1,0,0,1,.26-.74,1,1,0,0,1,.75-.26h6.56a.78.78,0,0,1,.58.19.7.7,0,0,1,.2.54.78.78,0,0,1-.2.58.78.78,0,0,1-.58.2h-5.77v4h5.38a.77.77,0,0,1,.58.19.78.78,0,0,1,.19.56.67.67,0,0,1-.77.76h-5.38v4.17h5.77a.7.7,0,0,1,.78.76.77.77,0,0,1-.2.57.82.82,0,0,1-.58.19Z" transform="translate(-815.64 -3.24)"/><path class="asd-1" d="M942.61,16.18A1,1,0,0,1,942,16a1.25,1.25,0,0,1-.43-.56l-4.84-11a1,1,0,0,1-.07-.64.77.77,0,0,1,.3-.43,1.12,1.12,0,0,1,1.17,0,1.22,1.22,0,0,1,.36.54L943,14.47h-.67l4.5-10.53a1.45,1.45,0,0,1,.39-.52,1,1,0,0,1,.62-.18.86.86,0,0,1,.53.15.67.67,0,0,1,.26.43,1.11,1.11,0,0,1-.1.64l-4.83,11a1.3,1.3,0,0,1-.41.56A1.07,1.07,0,0,1,942.61,16.18Z" transform="translate(-815.64 -3.24)"/><path class="asd-1" d="M951.4,16.06a.91.91,0,0,1-1-1V4.37a1,1,0,0,1,.26-.74,1,1,0,0,1,.75-.26H958a.77.77,0,0,1,.57.19.7.7,0,0,1,.2.54.78.78,0,0,1-.2.58.77.77,0,0,1-.57.2h-5.78v4h5.38a.81.81,0,0,1,.59.19.82.82,0,0,1,.18.56.81.81,0,0,1-.18.57.81.81,0,0,1-.59.19h-5.38v4.17H958a.8.8,0,0,1,.57,1.33.81.81,0,0,1-.57.19Z" transform="translate(-815.64 -3.24)"/><path class="asd-1" d="M961.87,16.18a.92.92,0,0,1-.65-.23.94.94,0,0,1-.23-.67V4.18a1,1,0,0,1,.22-.7.81.81,0,0,1,.61-.24.84.84,0,0,1,.49.12,2,2,0,0,1,.41.42l7.41,9.77h-.45V4.12a.92.92,0,0,1,.23-.65.86.86,0,0,1,.64-.23.87.87,0,0,1,.65.23,1,1,0,0,1,.21.65V15.3a1,1,0,0,1-.2.65.73.73,0,0,1-.55.23,1.08,1.08,0,0,1-.54-.12,2,2,0,0,1-.44-.44L962.3,5.87h.42v9.41a.93.93,0,0,1-.22.67A.82.82,0,0,1,961.87,16.18Z" transform="translate(-815.64 -3.24)"/><path class="asd-1" d="M979.49,16.22a7,7,0,0,1-2.25-.33,4,4,0,0,1-2.62-2.66,6.93,6.93,0,0,1-.35-2.29V4.18a.92.92,0,0,1,.25-.71,1.15,1.15,0,0,1,1.38,0,1,1,0,0,1,.25.71v6.73a3.94,3.94,0,0,0,.85,2.77,3.86,3.86,0,0,0,5,0,4,4,0,0,0,.84-2.77V4.18a1,1,0,0,1,.24-.71,1,1,0,0,1,.68-.23.93.93,0,0,1,.68.23,1,1,0,0,1,.24.71v6.76a6.47,6.47,0,0,1-.59,2.91,3.85,3.85,0,0,1-1.73,1.77A6.19,6.19,0,0,1,979.49,16.22Z" transform="translate(-815.64 -3.24)"/><path class="asd-1" d="M988.57,16.06a.91.91,0,0,1-1-1V4.37a1,1,0,0,1,.26-.74,1,1,0,0,1,.75-.26h6.56a.78.78,0,0,1,.58.19.7.7,0,0,1,.2.54.78.78,0,0,1-.2.58.78.78,0,0,1-.58.2h-5.77v4h5.38a.77.77,0,0,1,.58.19.78.78,0,0,1,.19.56.67.67,0,0,1-.77.76h-5.38v4.17h5.77a.7.7,0,0,1,.78.76.77.77,0,0,1-.2.57.82.82,0,0,1-.58.19Z" transform="translate(-815.64 -3.24)"/>
  
  
  <path class="ttc-1" d="M821.76,16.26A1,1,0,0,1,821,16a1.09,1.09,0,0,1-.27-.78V3.76h-4.24a.93.93,0,0,1-.66-.23.85.85,0,0,1-.24-.65.83.83,0,0,1,.24-.64.92.92,0,0,1,.66-.22H827a.94.94,0,0,1,.68.22.83.83,0,0,1,.24.64.85.85,0,0,1-.24.65,1,1,0,0,1-.68.23h-4.24V15.2a1.13,1.13,0,0,1-.25.78A1,1,0,0,1,821.76,16.26Z" transform="translate(-815.58 -1.84)"/><path class="ttc-1" d="M834.74,16.3a6.73,6.73,0,0,1-3.49-.89,5.92,5.92,0,0,1-2.3-2.52,8.51,8.51,0,0,1-.81-3.83,9.29,9.29,0,0,1,.46-3,6.57,6.57,0,0,1,1.32-2.28A5.75,5.75,0,0,1,832,2.34a7.27,7.27,0,0,1,2.74-.5,6.67,6.67,0,0,1,3.5.88,5.9,5.9,0,0,1,2.29,2.5A8.44,8.44,0,0,1,841.34,9a9.09,9.09,0,0,1-.46,3,6.47,6.47,0,0,1-1.33,2.3,5.61,5.61,0,0,1-2.09,1.46A7.16,7.16,0,0,1,834.74,16.3Zm0-1.8a4.27,4.27,0,0,0,2.39-.64A4.09,4.09,0,0,0,838.65,12a7.22,7.22,0,0,0,.53-2.94,6.13,6.13,0,0,0-1.16-4,4,4,0,0,0-3.28-1.42,4.37,4.37,0,0,0-2.39.63,4.07,4.07,0,0,0-1.52,1.85,7.39,7.39,0,0,0-.53,2.94,6.17,6.17,0,0,0,1.17,4A4,4,0,0,0,834.74,14.5Z" transform="translate(-815.58 -1.84)"/><path class="ttc-1" d="M845.16,16.26a1,1,0,0,1-.77-.28,1.09,1.09,0,0,1-.27-.78V3.08a1.07,1.07,0,0,1,.28-.79,1.09,1.09,0,0,1,.78-.27H850a5,5,0,0,1,3.52,1.13,4.06,4.06,0,0,1,1.24,3.17,4.09,4.09,0,0,1-1.24,3.19A5,5,0,0,1,850,10.64H846.2V15.2a1.08,1.08,0,0,1-.26.78A1,1,0,0,1,845.16,16.26Zm1-7.28h3.46a3.34,3.34,0,0,0,2.27-.67,2.48,2.48,0,0,0,.77-2,2.45,2.45,0,0,0-.77-2,3.34,3.34,0,0,0-2.27-.67H846.2Z" transform="translate(-815.58 -1.84)"/><path class="ttc-1" d="M858,16.12a1.05,1.05,0,0,1-.78-.28,1.09,1.09,0,0,1-.28-.78V3a1.07,1.07,0,0,1,.27-.79,1,1,0,0,1,.77-.27,1,1,0,0,1,.77.27A1.07,1.07,0,0,1,859,3V14.34h6.2a1,1,0,0,1,.68.23.85.85,0,0,1,.24.65.89.89,0,0,1-.24.66.91.91,0,0,1-.68.24Z" transform="translate(-815.58 -1.84)"/><path class="ttc-1" d="M869,16.26a1,1,0,0,1-.77-.28,1.09,1.09,0,0,1-.27-.78V2.94a1.07,1.07,0,0,1,.27-.79,1,1,0,0,1,.77-.27,1,1,0,0,1,.77.27,1.07,1.07,0,0,1,.27.79V15.2a1.08,1.08,0,0,1-.26.78A1,1,0,0,1,869,16.26Z" transform="translate(-815.58 -1.84)"/><path class="ttc-1" d="M874.34,16.26a.9.9,0,0,1-1-1V2.92a1.13,1.13,0,0,1,.25-.77.87.87,0,0,1,.67-.27.93.93,0,0,1,.55.13,2,2,0,0,1,.45.47l8.24,10.86H883V2.86a1,1,0,0,1,.25-.72,1,1,0,0,1,.71-.26,1,1,0,0,1,.72.26,1,1,0,0,1,.24.72V15.28a1,1,0,0,1-.23.72.77.77,0,0,1-.61.26,1.17,1.17,0,0,1-.59-.14,2,2,0,0,1-.49-.48L874.82,4.8h.46V15.26A1,1,0,0,1,875,16,.91.91,0,0,1,874.34,16.26Z" transform="translate(-815.58 -1.84)"/><path class="ttc-1" d="M889.34,16.12a1.15,1.15,0,0,1-.83-.29,1.13,1.13,0,0,1-.29-.83V3.14a1.13,1.13,0,0,1,.29-.83,1.15,1.15,0,0,1,.83-.29h7.3a.88.88,0,0,1,.64.21.79.79,0,0,1,.22.61.86.86,0,0,1-.22.64.84.84,0,0,1-.64.22h-6.42V8.12h6a.84.84,0,0,1,.65.22.86.86,0,0,1,.21.62.86.86,0,0,1-.21.63.88.88,0,0,1-.65.21h-6v4.64h6.42a.84.84,0,0,1,.64.22,1,1,0,0,1,0,1.25.88.88,0,0,1-.64.21Z" transform="translate(-815.58 -1.84)"/><path class="ttc-1" d="M906.32,16.26a1,1,0,0,1-.77-.28,1.13,1.13,0,0,1-.27-.78V3.08a1.07,1.07,0,0,1,.28-.79,1.09,1.09,0,0,1,.78-.27h4.78a5.18,5.18,0,0,1,3.52,1.08,3.83,3.83,0,0,1,1.24,3.06,4.09,4.09,0,0,1-.56,2.2,3.52,3.52,0,0,1-1.63,1.4,6.24,6.24,0,0,1-2.57.48l.18-.28h.52a2.37,2.37,0,0,1,1.39.4,3.5,3.5,0,0,1,1.07,1.28l1.72,3.2a1.25,1.25,0,0,1,.19.69.65.65,0,0,1-.24.53,1,1,0,0,1-.65.2,1.19,1.19,0,0,1-.71-.19,1.87,1.87,0,0,1-.49-.57L912,11.62a2.37,2.37,0,0,0-1-1,3.18,3.18,0,0,0-1.42-.27h-2.26v4.9a1.08,1.08,0,0,1-.26.78A1,1,0,0,1,906.32,16.26Zm1-7.52h3.42a3.52,3.52,0,0,0,2.3-.64,2.32,2.32,0,0,0,.78-1.9,2.29,2.29,0,0,0-.78-1.88,3.52,3.52,0,0,0-2.3-.64h-3.42Z" transform="translate(-815.58 -1.84)"/><path class="ttc-1" d="M919.94,16.12a1.15,1.15,0,0,1-.83-.29,1.13,1.13,0,0,1-.29-.83V3.14a1.13,1.13,0,0,1,.29-.83,1.15,1.15,0,0,1,.83-.29h7.3a.88.88,0,0,1,.64.21.79.79,0,0,1,.22.61.86.86,0,0,1-.22.64.84.84,0,0,1-.64.22h-6.42V8.12h6a.84.84,0,0,1,.65.22.87.87,0,0,1,.22.62.86.86,0,0,1-.22.63.88.88,0,0,1-.65.21h-6v4.64h6.42a.84.84,0,0,1,.64.22,1,1,0,0,1,0,1.25.88.88,0,0,1-.64.21Z" transform="translate(-815.58 -1.84)"/><path class="ttc-1" d="M935.86,16.26a1.23,1.23,0,0,1-.73-.21,1.49,1.49,0,0,1-.47-.63L929.28,3.24a1.26,1.26,0,0,1-.08-.72.85.85,0,0,1,.33-.47,1.09,1.09,0,0,1,.61-.17,1.08,1.08,0,0,1,.7.2,1.37,1.37,0,0,1,.4.6l5,11.68h-.74l5-11.7a1.69,1.69,0,0,1,.43-.58,1.11,1.11,0,0,1,.69-.2,1,1,0,0,1,.59.17.71.71,0,0,1,.29.47,1.24,1.24,0,0,1-.12.72l-5.36,12.18a1.48,1.48,0,0,1-.46.63A1.18,1.18,0,0,1,935.86,16.26Z" transform="translate(-815.58 -1.84)"/><path class="ttc-1" d="M945.62,16.12a1.15,1.15,0,0,1-.83-.29,1.13,1.13,0,0,1-.29-.83V3.14a1.13,1.13,0,0,1,.29-.83,1.15,1.15,0,0,1,.83-.29h7.3a.88.88,0,0,1,.64.21.79.79,0,0,1,.22.61.86.86,0,0,1-.22.64.84.84,0,0,1-.64.22H946.5V8.12h6a.84.84,0,0,1,.65.22.86.86,0,0,1,.21.62.86.86,0,0,1-.21.63.88.88,0,0,1-.65.21h-6v4.64h6.42a.84.84,0,0,1,.64.22,1,1,0,0,1,0,1.25.88.88,0,0,1-.64.21Z" transform="translate(-815.58 -1.84)"/><path class="ttc-1" d="M957.26,16.26a.9.9,0,0,1-1-1V2.92a1.13,1.13,0,0,1,.25-.77.87.87,0,0,1,.67-.27.93.93,0,0,1,.55.13,2,2,0,0,1,.45.47l8.24,10.86h-.5V2.86a1,1,0,0,1,.25-.72,1,1,0,0,1,.71-.26,1,1,0,0,1,.72.26,1,1,0,0,1,.24.72V15.28a1,1,0,0,1-.23.72.77.77,0,0,1-.61.26,1.17,1.17,0,0,1-.59-.14,2,2,0,0,1-.49-.48L957.74,4.8h.46V15.26A1,1,0,0,1,958,16,.91.91,0,0,1,957.26,16.26Z" transform="translate(-815.58 -1.84)"/><path class="ttc-1" d="M976.84,16.3a7.65,7.65,0,0,1-2.5-.37,4.68,4.68,0,0,1-1.81-1.11A5,5,0,0,1,971.42,13a7.85,7.85,0,0,1-.38-2.54V2.92a1,1,0,0,1,.27-.78,1.09,1.09,0,0,1,.77-.26,1.07,1.07,0,0,1,.77.26,1,1,0,0,1,.27.78V10.4a4.4,4.4,0,0,0,1,3.08,4.28,4.28,0,0,0,5.55,0,4.4,4.4,0,0,0,.94-3.08V2.92a1,1,0,0,1,.27-.78,1.05,1.05,0,0,1,.75-.26,1,1,0,0,1,.76.26,1,1,0,0,1,.26.78v7.52a7.12,7.12,0,0,1-.65,3.23,4.28,4.28,0,0,1-1.93,2A6.87,6.87,0,0,1,976.84,16.3Z" transform="translate(-815.58 -1.84)"/><path class="ttc-1" d="M986.92,16.12a1.15,1.15,0,0,1-.83-.29,1.13,1.13,0,0,1-.29-.83V3.14a1.13,1.13,0,0,1,.29-.83,1.15,1.15,0,0,1,.83-.29h7.3a.88.88,0,0,1,.64.21.79.79,0,0,1,.22.61.86.86,0,0,1-.22.64.84.84,0,0,1-.64.22H987.8V8.12h6a.84.84,0,0,1,.65.22.86.86,0,0,1,.21.62.86.86,0,0,1-.21.63.88.88,0,0,1-.65.21h-6v4.64h6.42a.84.84,0,0,1,.64.22,1,1,0,0,1,0,1.25.88.88,0,0,1-.64.21Z" transform="translate(-815.58 -1.84)"/>


  <line class="clsssss-1" x1="938" x2="938" y2="224.35"/>
  <path class="ccll2-1" d="M3.89,349a.54.54,0,0,1,.39.16.53.53,0,0,1,.17.38.61.61,0,0,1-.2.4l-4.56,4.56a.6.6,0,0,1-.38.19.54.54,0,0,1-.39-.18.5.5,0,0,1-.16-.37.54.54,0,0,1,.18-.39l1.85-1.86-8-8-.56,2.65a.35.35,0,0,1-.12.24.48.48,0,0,1-.41.13.67.67,0,0,1-.44-.2.53.53,0,0,1-.14-.5l.7-3.49a1,1,0,0,1,.23-.46.58.58,0,0,1,.42-.18.63.63,0,0,1,.45.21l8.7,8.7,1.84-1.84A.6.6,0,0,1,3.89,349Z" transform="translate(8.85 -315.87)"/><path class="ccll2-1" d="M3.7,333a8,8,0,0,1,4.46,2.58,9.45,9.45,0,0,1,2.93,4.87,4.45,4.45,0,0,1-1.32,4.12,5.94,5.94,0,0,1-1.91,1.26,5.63,5.63,0,0,1-2.19.46.75.75,0,0,1-.59-.22.62.62,0,0,1-.18-.35.31.31,0,0,1,.09-.3.73.73,0,0,1,.46-.19A5.46,5.46,0,0,0,9,343.85a3.27,3.27,0,0,0,.88-3.27,8.83,8.83,0,0,0-2.59-4.1l-.38-.38a3.81,3.81,0,0,1,.29,2.44A4.33,4.33,0,0,1,6,340.76,4.7,4.7,0,0,1,4,342a3.89,3.89,0,0,1-2.19,0,4.67,4.67,0,0,1-2-1.24,4.57,4.57,0,0,1-1.2-2,4.12,4.12,0,0,1,0-2.23,4.49,4.49,0,0,1,1.19-2A4.54,4.54,0,0,1,3.7,333Zm2.64,4.51a3.18,3.18,0,0,0-1-2.35,3.23,3.23,0,0,0-2.38-1.05,3.32,3.32,0,0,0-2.39,1.08,3.08,3.08,0,0,0-1,2.3,3.42,3.42,0,0,0,1.1,2.34A3.32,3.32,0,0,0,3,340.94a3.12,3.12,0,0,0,2.3-1A3.29,3.29,0,0,0,6.34,337.55Z" transform="translate(8.85 -315.87)"/><path class="ccll2-1" d="M12.06,324.68a8.08,8.08,0,0,1,4.47,2.57,9.49,9.49,0,0,1,2.92,4.88,4.42,4.42,0,0,1-1.32,4.11,6,6,0,0,1-1.91,1.27A5.56,5.56,0,0,1,14,338a.72.72,0,0,1-.58-.22.52.52,0,0,1-.18-.35.33.33,0,0,1,.08-.31.82.82,0,0,1,.46-.18,5.52,5.52,0,0,0,3.57-1.42,3.33,3.33,0,0,0,.88-3.28,8.92,8.92,0,0,0-2.6-4.09l-.37-.38a3.85,3.85,0,0,1,.28,2.43,4.36,4.36,0,0,1-1.23,2.23,4.7,4.7,0,0,1-2,1.22,4,4,0,0,1-2.19,0,4.58,4.58,0,0,1-2-1.24,4.39,4.39,0,0,1-1.2-2,4.06,4.06,0,0,1,0-2.24,4.39,4.39,0,0,1,1.2-2A4.52,4.52,0,0,1,12.06,324.68Zm2.64,4.51a3.2,3.2,0,0,0-1-2.36,3.27,3.27,0,0,0-2.37-1.05,3.37,3.37,0,0,0-2.39,1.08,3.09,3.09,0,0,0-1,2.3A3.38,3.38,0,0,0,9,331.5a3.31,3.31,0,0,0,2.33,1.08,3.12,3.12,0,0,0,2.3-1A3.32,3.32,0,0,0,14.7,329.19Z" transform="translate(8.85 -315.87)"/><path class="ccll2-1" d="M25.12,320.64a3.52,3.52,0,0,1,2,1.08,3.56,3.56,0,0,1,1.17,2.84,4.62,4.62,0,0,1-1.53,3A6.81,6.81,0,0,1,24.71,329a5.55,5.55,0,0,1-2.25.51.73.73,0,0,1-.58-.22.62.62,0,0,1-.18-.35.36.36,0,0,1,.08-.31.69.69,0,0,1,.46-.18,6.07,6.07,0,0,0,2.13-.48A5.35,5.35,0,0,0,26,326.82a3.41,3.41,0,0,0,1.14-2.17,2.63,2.63,0,0,0-.89-2.07c-1.31-1.31-2.77-1.15-4.39.46l-.71.71a.54.54,0,0,1-.41.19.52.52,0,0,1-.37-.16.51.51,0,0,1-.16-.37.54.54,0,0,1,.19-.41l.5-.5a3.79,3.79,0,0,0,1.25-2.33,2.65,2.65,0,0,0-.89-2.16,2.36,2.36,0,0,0-1.81-.79,3,3,0,0,0-1.88,1,4.94,4.94,0,0,0-1.09,1.61,7.28,7.28,0,0,0-.49,2.11.67.67,0,0,1-.18.46.33.33,0,0,1-.31.09.6.6,0,0,1-.34-.18.76.76,0,0,1-.23-.59,5.61,5.61,0,0,1,.5-2.23,6.84,6.84,0,0,1,1.38-2,4.31,4.31,0,0,1,2.71-1.38,3.19,3.19,0,0,1,2.56,1.05,3.68,3.68,0,0,1,1.08,1.94,3.24,3.24,0,0,1-.28,2.11A3.44,3.44,0,0,1,25.12,320.64Z" transform="translate(8.85 -315.87)"/><path class="ccll2-1" d="M243.63,348.73a.54.54,0,0,1,.35.94l-5.54,5.55a.58.58,0,0,1-.42.19.52.52,0,0,1-.38-.15.65.65,0,0,1-.19-.48l-.39-7.27a11,11,0,0,0-.44-2.58,4,4,0,0,0-1-1.64,2.5,2.5,0,0,0-1.86-.85,2.88,2.88,0,0,0-1.91,1,4.92,4.92,0,0,0-1.08,1.6,7,7,0,0,0-.49,2.12.69.69,0,0,1-.18.46.36.36,0,0,1-.31.08.66.66,0,0,1-.35-.18.77.77,0,0,1-.22-.58,5.66,5.66,0,0,1,.52-2.25,6.61,6.61,0,0,1,1.36-2,4.19,4.19,0,0,1,2.73-1.37,3.36,3.36,0,0,1,2.61,1.11,5.18,5.18,0,0,1,1.25,2,11.77,11.77,0,0,1,.51,3.07l.27,6.16,4.73-4.72A.56.56,0,0,1,243.63,348.73Z" transform="translate(8.85 -315.87)"/><path class="ccll2-1" d="M245.7,345.62a12.12,12.12,0,0,1-7.49-7.5,4.41,4.41,0,0,1,5-5,9.44,9.44,0,0,1,4.61,2.87,9.57,9.57,0,0,1,2.88,4.62,4.43,4.43,0,0,1-5,5.05Zm3.89-4.94a12.58,12.58,0,0,0-6.45-6.45,3.18,3.18,0,0,0-3.78,3.78,9.4,9.4,0,0,0,2.62,3.83,9.23,9.23,0,0,0,3.83,2.6,3.14,3.14,0,0,0,3.78-3.76Z" transform="translate(8.85 -315.87)"/><path class="ccll2-1" d="M254.07,337.26a12.11,12.11,0,0,1-7.5-7.5,4.44,4.44,0,0,1,5-5.05,12.12,12.12,0,0,1,7.5,7.49,4.43,4.43,0,0,1-5,5.06Zm3.88-4.94a9.36,9.36,0,0,0-2.62-3.84,9.26,9.26,0,0,0-3.83-2.61,3.18,3.18,0,0,0-3.78,3.78,12.55,12.55,0,0,0,6.45,6.43,3.15,3.15,0,0,0,3.78-3.76Z" transform="translate(8.85 -315.87)"/><path class="ccll2-1" d="M268.72,323.64a.52.52,0,0,1,.38.16.49.49,0,0,1,0,.78l-5.55,5.55a.58.58,0,0,1-.41.19.52.52,0,0,1-.38-.15.65.65,0,0,1-.2-.47l-.39-7.28a10.59,10.59,0,0,0-.43-2.58,4,4,0,0,0-1-1.64,2.5,2.5,0,0,0-1.86-.85,2.88,2.88,0,0,0-1.91,1,5,5,0,0,0-1.08,1.6,6.75,6.75,0,0,0-.49,2.12.67.67,0,0,1-.18.46.36.36,0,0,1-.31.08.57.57,0,0,1-.35-.18.73.73,0,0,1-.22-.58,5.86,5.86,0,0,1,.51-2.25,6.47,6.47,0,0,1,1.37-2,4.14,4.14,0,0,1,2.72-1.38,3.37,3.37,0,0,1,2.62,1.11,5.22,5.22,0,0,1,1.25,2,11.32,11.32,0,0,1,.5,3.06l.28,6.16,4.73-4.72A.56.56,0,0,1,268.72,323.64Z" transform="translate(8.85 -315.87)"/><path class="ccll2-1" d="M403,348.71a.54.54,0,0,1,.36.94l-5.55,5.55a.58.58,0,0,1-.42.19.51.51,0,0,1-.37-.15.66.66,0,0,1-.2-.48l-.39-7.27a11.1,11.1,0,0,0-.43-2.58,3.91,3.91,0,0,0-1-1.64,2.47,2.47,0,0,0-1.86-.85,2.86,2.86,0,0,0-1.9,1,5.23,5.23,0,0,0-1.09,1.6,7,7,0,0,0-.48,2.12.69.69,0,0,1-.18.46.36.36,0,0,1-.31.08.62.62,0,0,1-.35-.18.73.73,0,0,1-.22-.58,5.82,5.82,0,0,1,.51-2.25,6.64,6.64,0,0,1,1.37-2,4.17,4.17,0,0,1,2.72-1.37,3.37,3.37,0,0,1,2.62,1.11,5.3,5.3,0,0,1,1.25,2,11.4,11.4,0,0,1,.5,3.07l.28,6.16,4.73-4.72A.56.56,0,0,1,403,348.71Z" transform="translate(8.85 -315.87)"/><path class="ccll2-1" d="M405.06,345.6a9.4,9.4,0,0,1-4.61-2.88,9.53,9.53,0,0,1-2.89-4.62,4.43,4.43,0,0,1,5.05-5,9.42,9.42,0,0,1,4.6,2.87,9.53,9.53,0,0,1,2.89,4.62,4.43,4.43,0,0,1-5,5.05Zm3.88-4.94a12.61,12.61,0,0,0-6.44-6.45,3.18,3.18,0,0,0-3.78,3.78,12.36,12.36,0,0,0,6.45,6.43,3.14,3.14,0,0,0,3.77-3.76Z" transform="translate(8.85 -315.87)"/><path class="ccll2-1" d="M413.42,337.24a12.17,12.17,0,0,1-7.5-7.5,4.44,4.44,0,0,1,5.05-5.05,12.08,12.08,0,0,1,7.49,7.49,4.43,4.43,0,0,1-5,5.06Zm3.89-4.94a9.4,9.4,0,0,0-2.63-3.84,9.18,9.18,0,0,0-3.82-2.61,3.18,3.18,0,0,0-3.78,3.78,9.38,9.38,0,0,0,2.62,3.82,9.27,9.27,0,0,0,3.83,2.61,3.15,3.15,0,0,0,3.78-3.76Z" transform="translate(8.85 -315.87)"/><path class="ccll2-1" d="M424.3,320.42a3.52,3.52,0,0,1,2.05,1.06,3.36,3.36,0,0,1,1.07,2.87,7,7,0,0,1-5.12,5.11,3.32,3.32,0,0,1-2.86-1.07,3.39,3.39,0,0,1-.6-4.3,3.63,3.63,0,0,1-2.09.3,3.4,3.4,0,0,1-1.86-1,3.3,3.3,0,0,1-1-2.74,6.28,6.28,0,0,1,4.77-4.77,3.28,3.28,0,0,1,2.74,1.05,3.32,3.32,0,0,1,1,1.86,3.45,3.45,0,0,1-.3,2.08A3.62,3.62,0,0,1,424.3,320.42Zm1.13,1.9q-2-2-4.56.6c-1.72,1.72-1.92,3.23-.6,4.55s2.83,1.11,4.55-.61S426.74,323.63,425.43,322.32Zm-7.58,1.08a4.59,4.59,0,0,0,3.51-3.51,2.52,2.52,0,0,0-.83-2,2.4,2.4,0,0,0-2-.79,4.75,4.75,0,0,0-3.51,3.51,2.42,2.42,0,0,0,.78,2A2.55,2.55,0,0,0,417.85,323.4Z" transform="translate(8.85 -315.87)"/><path class="ccll2-1" d="M775,348.73a.54.54,0,0,1,.35.94l-5.54,5.55a.58.58,0,0,1-.42.19.52.52,0,0,1-.38-.15.65.65,0,0,1-.19-.48l-.39-7.27a11.66,11.66,0,0,0-.43-2.58,4,4,0,0,0-1-1.64,2.5,2.5,0,0,0-1.86-.85,2.84,2.84,0,0,0-1.9,1,4.9,4.9,0,0,0-1.09,1.6,7.27,7.27,0,0,0-.49,2.12.69.69,0,0,1-.18.46.35.35,0,0,1-.31.08.66.66,0,0,1-.35-.18.77.77,0,0,1-.22-.58,5.66,5.66,0,0,1,.52-2.25,6.61,6.61,0,0,1,1.36-2,4.22,4.22,0,0,1,2.73-1.37,3.36,3.36,0,0,1,2.61,1.11,5.2,5.2,0,0,1,1.26,2,11.81,11.81,0,0,1,.5,3.07l.28,6.16,4.72-4.72A.56.56,0,0,1,775,348.73Z" transform="translate(8.85 -315.87)"/><path class="ccll2-1" d="M777.06,345.62a12.11,12.11,0,0,1-7.5-7.5,4.41,4.41,0,0,1,5-5,12,12,0,0,1,7.49,7.49,4.42,4.42,0,0,1-5,5.05Zm3.88-4.94a12.58,12.58,0,0,0-6.45-6.45,3.18,3.18,0,0,0-3.78,3.78,9.4,9.4,0,0,0,2.62,3.83,9.23,9.23,0,0,0,3.83,2.6,3.14,3.14,0,0,0,3.78-3.76Z" transform="translate(8.85 -315.87)"/><path class="ccll2-1" d="M791.7,332a.53.53,0,0,1,.39.16.49.49,0,0,1,0,.78l-5.55,5.55a.59.59,0,0,1-.42.2.49.49,0,0,1-.37-.16.65.65,0,0,1-.2-.47l-.39-7.28a11.1,11.1,0,0,0-.43-2.58,4.14,4.14,0,0,0-1-1.64,2.46,2.46,0,0,0-1.87-.84,2.86,2.86,0,0,0-1.9.95,5.35,5.35,0,0,0-1.09,1.6,7.12,7.12,0,0,0-.48,2.12.67.67,0,0,1-.18.46.34.34,0,0,1-.31.09.58.58,0,0,1-.35-.19.72.72,0,0,1-.22-.58,5.81,5.81,0,0,1,.51-2.24,6.4,6.4,0,0,1,1.37-2,4.13,4.13,0,0,1,2.72-1.37,3.32,3.32,0,0,1,2.62,1.1,5.33,5.33,0,0,1,1.25,2,11.33,11.33,0,0,1,.5,3.07l.28,6.16,4.73-4.73A.6.6,0,0,1,791.7,332Z" transform="translate(8.85 -315.87)"/><path class="ccll2-1" d="M800.07,323.64a.52.52,0,0,1,.38.16.49.49,0,0,1,0,.78l-5.54,5.55a.58.58,0,0,1-.42.19.52.52,0,0,1-.38-.15.64.64,0,0,1-.19-.47l-.39-7.28a11,11,0,0,0-.44-2.58,4,4,0,0,0-1-1.64,2.5,2.5,0,0,0-1.86-.85,2.92,2.92,0,0,0-1.91,1,5,5,0,0,0-1.08,1.6,7,7,0,0,0-.49,2.12.67.67,0,0,1-.18.46.36.36,0,0,1-.31.08.59.59,0,0,1-.35-.18.77.77,0,0,1-.22-.58,5.7,5.7,0,0,1,.52-2.25,6.44,6.44,0,0,1,1.36-2,4.16,4.16,0,0,1,2.73-1.38,3.36,3.36,0,0,1,2.61,1.11,5.22,5.22,0,0,1,1.25,2,11.69,11.69,0,0,1,.51,3.06l.27,6.16,4.73-4.72A.6.6,0,0,1,800.07,323.64Z" transform="translate(8.85 -315.87)"/>
  
  
  <path class="ssc-1" d="M-40.91-22.9A.56.56,0,0,1-41.3-23a.46.46,0,0,1-.15-.36.44.44,0,0,1,.15-.35.61.61,0,0,1,.39-.12h3.63V-39.62h.67l-3.58,2.54a.59.59,0,0,1-.34.12.41.41,0,0,1-.29-.1.54.54,0,0,1-.16-.25.54.54,0,0,1,0-.31.55.55,0,0,1,.25-.28l3.43-2.46a1.06,1.06,0,0,1,.28-.16.81.81,0,0,1,.29,0,.48.48,0,0,1,.34.14.51.51,0,0,1,.15.41v16.14h3.38a.61.61,0,0,1,.41.12.47.47,0,0,1,.14.35.47.47,0,0,1-.14.37.56.56,0,0,1-.41.13Z" transform="translate(41.45 40.61)"/><path class="ssc-1" d="M-22.38-22.7A5,5,0,0,1-26.79-25a12.15,12.15,0,0,1-1.5-6.65,15.63,15.63,0,0,1,.67-5,6.18,6.18,0,0,1,2-3,5.15,5.15,0,0,1,3.25-1A4.93,4.93,0,0,1-18-38.35c1,1.51,1.49,3.73,1.49,6.68a15.54,15.54,0,0,1-.67,4.93,6.18,6.18,0,0,1-2,3A5.18,5.18,0,0,1-22.38-22.7Zm0-1a4,4,0,0,0,3.62-2,12,12,0,0,0,1.18-6,11.93,11.93,0,0,0-1.17-6,4,4,0,0,0-3.63-1.92A3.92,3.92,0,0,0-26-37.65q-1.19,1.93-1.18,6a11.86,11.86,0,0,0,1.18,6A3.92,3.92,0,0,0-22.38-23.72Z" transform="translate(41.45 40.61)"/><path class="ssc-1" d="M-22.38,43.82a8.32,8.32,0,0,1-3.24-.56,4.39,4.39,0,0,1-2.06-1.62,4.63,4.63,0,0,1-.71-2.59,4.59,4.59,0,0,1,.5-2.16,4.11,4.11,0,0,1,1.39-1.54,4.88,4.88,0,0,1,2.09-.74v.22A4.36,4.36,0,0,1-27,33.3a4.24,4.24,0,0,1-1-2.76A4.4,4.4,0,0,1-27.3,28a4.45,4.45,0,0,1,2-1.58,7.47,7.47,0,0,1,2.95-.54,7.5,7.5,0,0,1,3,.54A4.39,4.39,0,0,1-17.46,28a4.4,4.4,0,0,1,.7,2.5,4.34,4.34,0,0,1-.44,1.93A4.07,4.07,0,0,1-18.43,34a4.71,4.71,0,0,1-1.91.86v-.22a4.58,4.58,0,0,1,2.88,1.44,4.26,4.26,0,0,1,1.09,3,4.55,4.55,0,0,1-.71,2.59,4.38,4.38,0,0,1-2,1.62A8.35,8.35,0,0,1-22.38,43.82Zm0-1a6.1,6.1,0,0,0,3.68-.94A3.37,3.37,0,0,0-17.46,39a3.3,3.3,0,0,0-1.24-2.84,6,6,0,0,0-3.68-.94,6,6,0,0,0-3.66.94A3.29,3.29,0,0,0-27.3,39,3.35,3.35,0,0,0-26,41.89,6.08,6.08,0,0,0-22.38,42.83Zm0-8.57A5.87,5.87,0,0,0-20,33.81a3.47,3.47,0,0,0,1.56-1.28,3.52,3.52,0,0,0,.54-2A3.22,3.22,0,0,0-19,27.87a5.16,5.16,0,0,0-3.33-1,5.16,5.16,0,0,0-3.31,1,3.21,3.21,0,0,0-1.21,2.69,3.29,3.29,0,0,0,1.21,2.72A5.1,5.1,0,0,0-22.38,34.26Z" transform="translate(41.45 40.61)"/><path class="ssc-1" d="M-21.81,110.35a5.55,5.55,0,0,1-3.36-1,6.09,6.09,0,0,1-2.1-2.88,12.76,12.76,0,0,1-.72-4.54,16.64,16.64,0,0,1,.45-4.08,8.47,8.47,0,0,1,1.31-3,5.84,5.84,0,0,1,2.11-1.83,6.27,6.27,0,0,1,2.81-.62,6.51,6.51,0,0,1,2.47.53,5.86,5.86,0,0,1,2.15,1.53.72.72,0,0,1,.15.32.61.61,0,0,1,0,.33.47.47,0,0,1-.18.23.33.33,0,0,1-.29.05.67.67,0,0,1-.34-.21,5.19,5.19,0,0,0-1.87-1.34,5.47,5.47,0,0,0-2.07-.42,5,5,0,0,0-3,.92,5.57,5.57,0,0,0-1.91,2.75,13.67,13.67,0,0,0-.66,4.57v2.74h-.15a5.88,5.88,0,0,1,.83-2.7A4.88,4.88,0,0,1-24.38,100a5.39,5.39,0,0,1,2.57-.62,5.56,5.56,0,0,1,2.8.69A5.08,5.08,0,0,1-17.12,102a5.82,5.82,0,0,1,.68,2.84,5.94,5.94,0,0,1-.68,2.85,5,5,0,0,1-1.9,2A5.49,5.49,0,0,1-21.81,110.35Zm-.1-1a4.49,4.49,0,0,0,2.28-.57,4.17,4.17,0,0,0,1.54-1.58,4.71,4.71,0,0,0,.56-2.32,4.71,4.71,0,0,0-.56-2.32A4.17,4.17,0,0,0-19.63,101a4.49,4.49,0,0,0-2.28-.57,4.45,4.45,0,0,0-2.27.57,4.1,4.1,0,0,0-1.54,1.58,4.71,4.71,0,0,0-.56,2.32,4.71,4.71,0,0,0,.56,2.32,4.1,4.1,0,0,0,1.54,1.58A4.45,4.45,0,0,0-21.91,109.33Z" transform="translate(41.45 40.61)"/><path class="ssc-1" d="M-19.32,176.82a.5.5,0,0,1-.39-.15.56.56,0,0,1-.13-.39v-3.73h-8a.54.54,0,0,1-.4-.15.54.54,0,0,1-.15-.4.63.63,0,0,1,.06-.27l.17-.3,8.24-12.07a1,1,0,0,1,.27-.26.67.67,0,0,1,.35-.08.51.51,0,0,1,.35.13.53.53,0,0,1,.15.41v12h2.36a.56.56,0,0,1,.41.13.44.44,0,0,1,.13.34.5.5,0,0,1-.13.38.61.61,0,0,1-.41.12H-18.8v3.73a.56.56,0,0,1-.13.39A.47.47,0,0,1-19.32,176.82Zm-.52-5.24V160.31h.49l-7.95,11.57v-.3Z" transform="translate(41.45 40.61)"/><path class="ssc-1" d="M-26.72,243.2a.67.67,0,0,1-.5-.18.5.5,0,0,1-.17-.39.74.74,0,0,1,.06-.28.6.6,0,0,1,.16-.24l6.06-6.56a11.65,11.65,0,0,0,2-2.82,6.21,6.21,0,0,0,.62-2.67,3.33,3.33,0,0,0-1-2.64,4.36,4.36,0,0,0-3-.91A6.31,6.31,0,0,0-25,227a7.33,7.33,0,0,0-2.11,1.33.68.68,0,0,1-.36.18.39.39,0,0,1-.28-.08.72.72,0,0,1-.16-.25.69.69,0,0,1,0-.32.7.7,0,0,1,.19-.33,7.46,7.46,0,0,1,2.29-1.44,7.53,7.53,0,0,1,2.9-.57,6.63,6.63,0,0,1,2.78.53A3.89,3.89,0,0,1-18,227.58a4.77,4.77,0,0,1,.59,2.46,6.5,6.5,0,0,1-.34,2.07,10.1,10.1,0,0,1-1,2.09,15.25,15.25,0,0,1-1.76,2.17l-5.86,6.23v-.37H-17a.61.61,0,0,1,.41.12.47.47,0,0,1,.14.35.47.47,0,0,1-.14.37.56.56,0,0,1-.41.13Z" transform="translate(41.45 40.61)"/><path class="ssc-1" d="M-22.38,309.92a5,5,0,0,1-4.41-2.28,12.19,12.19,0,0,1-1.5-6.66,15.52,15.52,0,0,1,.67-4.94,6.16,6.16,0,0,1,2-3,5.2,5.2,0,0,1,3.25-1A4.93,4.93,0,0,1-18,294.28c1,1.5,1.49,3.73,1.49,6.68a15.62,15.62,0,0,1-.67,4.93,6.1,6.1,0,0,1-2,3A5.18,5.18,0,0,1-22.38,309.92Zm0-1A4,4,0,0,0-18.76,307a11.9,11.9,0,0,0,1.18-6q0-4.08-1.17-6A4,4,0,0,0-22.38,293,3.94,3.94,0,0,0-26,295q-1.19,1.93-1.18,6t1.18,6A3.92,3.92,0,0,0-22.38,308.9Z" transform="translate(41.45 40.61)"/>
  
 <path class="ccc-1" d="M-73.3,52.18h-6.5v6h7.25V60H-82V43.29h9V45.1H-79.8v5.29h6.5Z" transform="translate(14.87 -43.29)"/><path class="ccc-1" d="M-80.75,79.6l-1.74,5.27h-2.23L-79,68.13h2.6l5.72,16.74H-73l-1.79-5.27Zm5.49-1.69-1.64-4.82c-.37-1.09-.62-2.08-.87-3h0c-.24,1-.52,2-.84,3l-1.64,4.84Z" transform="translate(14.87 -43.29)"/><path class="ccc-1" d="M-82.54,93.19a22,22,0,0,1,4.15-.35c2.31,0,3.8.42,4.85,1.37a4.15,4.15,0,0,1,1.31,3.17,4.41,4.41,0,0,1-3.15,4.28v.07c1.29.45,2.06,1.64,2.46,3.38a25.75,25.75,0,0,0,1.29,4.59h-2.24a22.55,22.55,0,0,1-1.12-4c-.49-2.32-1.39-3.18-3.35-3.26h-2v7.25h-2.17Zm2.17,7.62h2.21c2.31,0,3.77-1.26,3.77-3.18,0-2.16-1.56-3.1-3.85-3.13a8.74,8.74,0,0,0-2.13.2Z" transform="translate(14.87 -43.29)"/><path class="ccc-1" d="M-84,134.54V117.8h2.36l5.37,8.47a46.18,46.18,0,0,1,3,5.44l0,0c-.2-2.23-.25-4.27-.25-6.88v-7h2v16.74h-2.18L-79,126.05a54.76,54.76,0,0,1-3.13-5.59l-.07,0c.12,2.11.17,4.12.17,6.91v7.15Z" transform="translate(14.87 -43.29)"/><path class="ccc-1" d="M-76.66,142.64v16.74h-2.16V142.64Z" transform="translate(14.87 -43.29)"/><path class="ccc-1" d="M-84,184.21V167.47h2.36l5.37,8.47a47,47,0,0,1,3,5.44l0,0c-.2-2.23-.25-4.27-.25-6.87v-7h2v16.74h-2.18L-79,175.72a54.76,54.76,0,0,1-3.13-5.59l-.07,0c.12,2.11.17,4.13.17,6.91v7.15Z" transform="translate(14.87 -43.29)"/><path class="ccc-1" d="M-71.14,208.3a15.48,15.48,0,0,1-5.14.92A8.63,8.63,0,0,1-82.54,207a8.61,8.61,0,0,1-2.33-6.23c0-5,3.45-8.65,9.07-8.65a10.5,10.5,0,0,1,4.17.77l-.52,1.77a8.69,8.69,0,0,0-3.7-.72c-4.08,0-6.74,2.53-6.74,6.73s2.56,6.75,6.46,6.75a7,7,0,0,0,2.88-.45v-5h-3.4v-1.74h5.51Z" transform="translate(14.87 -43.29)"/><path class="ccc-1" d="M-82.28,231.25a7.64,7.64,0,0,0,3.88,1.09c2.21,0,3.5-1.16,3.5-2.85s-.89-2.46-3.15-3.33c-2.73-1-4.42-2.39-4.42-4.74,0-2.61,2.16-4.55,5.41-4.55a7.62,7.62,0,0,1,3.7.82l-.6,1.76a6.72,6.72,0,0,0-3.17-.79c-2.29,0-3.16,1.36-3.16,2.51,0,1.56,1,2.33,3.33,3.22,2.83,1.1,4.27,2.46,4.27,4.92s-1.91,4.82-5.86,4.82a8.6,8.6,0,0,1-4.27-1.07Z" transform="translate(14.87 -43.29)"/>
  
  <polygon class="cls-1" points="0.23 232.56 28.5 227.92 58.63 231.06 117.94 190.3 147.86 163.21 177.22 124.5 206.8 104.09 236.49 123.98 266.45 152.79 295.66 187.65 325.51 159.79 354.02 157.8 384.53 151.84 414.13 137.64 443.7 150.16 473.39 207.54 503.23 181.68 532.81 166.83 562.47 168.53 592.09 152.16 621.27 120 651.11 98.78 680.95 112.71 710.43 82.29 739.97 37.11 770 58.63 800.23 0.67 800.23 303.7 0.23 303.7 0.23 232.56"/><polyline class="cls-2" points="0.23 232.56 28.5 227.92 58.63 231.06 117.94 190.3 147.86 163.21 177.22 124.5 206.8 104.09 236.49 123.98 266.45 152.79 295.66 187.65 325.51 159.79 354.02 157.8 384.53 151.84 414.13 137.64 443.7 150.16 473.39 207.54 503.23 181.68 532.81 166.83 562.47 168.53 592.09 152.16 621.27 120 651.11 98.78 680.95 112.71 710.43 82.29 739.97 37.11 770 58.63 800.23 0.67"/><polygon class="cls-3" points="0.23 232.56 28.44 231.09 58.67 232.01 70.97 229.38 136.96 225.19 177.02 221.97 213.08 222.65 253.53 224.37 289 224.88 340.05 224.58 387.84 223.47 415.45 222.31 439.74 225.06 473.67 225.59 499.78 228 528.06 229.26 553.92 230.06 591.25 229.26 620.69 228.54 643.36 225.15 675.42 221.97 708.74 220.29 741.1 220.29 770.21 213.69 800.23 216.53 800.23 303.7 0.23 303.7 0.23 232.56"/><polyline class="cls-4" points="0.23 232.56 28.44 231.09 58.67 232.01 70.97 229.38 136.96 225.19 177.02 221.97 213.08 222.65 253.53 224.37 289 224.88 340.05 224.58 387.84 223.47 415.45 222.31 439.74 225.06 473.67 225.59 499.78 228 528.06 229.26 553.92 230.06 591.25 229.26 620.69 228.54 643.36 225.15 675.42 221.97 708.74 220.29 741.1 220.29 770.21 213.69 800.23 216.53"/>

  
 <rect class="clsss-1" width="96.83" height="37.46" rx="18.2"/><path class="clsss-2" d="M28.86,379.36a1.31,1.31,0,0,1-1-.36,1.37,1.37,0,0,1-.34-1v-8.75H24.48a1.14,1.14,0,0,1-.85-.3,1.13,1.13,0,0,1-.29-.83,1.09,1.09,0,0,1,.29-.8,1.18,1.18,0,0,1,.85-.29h8.79a1.15,1.15,0,0,1,.83.29,1.05,1.05,0,0,1,.29.8,1.09,1.09,0,0,1-.29.83,1.11,1.11,0,0,1-.83.3H30.21V378a1.42,1.42,0,0,1-.34,1A1.31,1.31,0,0,1,28.86,379.36Z" transform="translate(0 -355.24)"/><path class="clsss-2" d="M36.89,379.36a1.31,1.31,0,0,1-1-.36,1.38,1.38,0,0,1-.35-1v-9.74a1.39,1.39,0,0,1,.35-1,1.34,1.34,0,0,1,1-.35,1.37,1.37,0,0,1,1,.35,1.38,1.38,0,0,1,.34,1v3.69h5.66v-3.69a1.35,1.35,0,0,1,.36-1,1.38,1.38,0,0,1,1-.35,1.36,1.36,0,0,1,1,.35,1.38,1.38,0,0,1,.34,1V378a1.37,1.37,0,0,1-.34,1,1.32,1.32,0,0,1-1,.36A1.25,1.25,0,0,1,43.89,378v-3.84H38.23V378a1.41,1.41,0,0,1-.33,1A1.34,1.34,0,0,1,36.89,379.36Z" transform="translate(0 -355.24)"/><path class="clsss-2" d="M50.45,379.22a1.41,1.41,0,0,1-1-.36,1.45,1.45,0,0,1-.36-1.06v-9.36a1.42,1.42,0,0,1,.36-1.05,1.38,1.38,0,0,1,1-.37h6a.94.94,0,0,1,1,1,1.07,1.07,0,0,1-.27.79,1,1,0,0,1-.78.27H51.63V372h4.48a1,1,0,0,1,.79.27,1.06,1.06,0,0,1,.26.79.93.93,0,0,1-1,1H51.63v3.06h4.86a1,1,0,1,1,0,2.09Z" transform="translate(0 -355.24)"/><path class="clsss-2" d="M60.76,379.36a1.22,1.22,0,0,1-.9-.32,1.26,1.26,0,0,1-.31-.93v-10a1.18,1.18,0,0,1,.34-.93,1.29,1.29,0,0,1,.92-.32,1.48,1.48,0,0,1,.82.2,1.52,1.52,0,0,1,.55.65l4,7.3h-.56l4-7.3a1.58,1.58,0,0,1,.54-.65,1.54,1.54,0,0,1,.83-.2,1.23,1.23,0,0,1,.89.32,1.25,1.25,0,0,1,.32.93v10a1.3,1.3,0,0,1-.31.93,1.25,1.25,0,0,1-.92.32,1.12,1.12,0,0,1-1.21-1.25v-7h.38l-3.24,5.76a1.39,1.39,0,0,1-.42.49,1.11,1.11,0,0,1-.6.16,1.13,1.13,0,0,1-.64-.17,1.56,1.56,0,0,1-.43-.48l-3.24-5.77H62v7a1.3,1.3,0,0,1-.3.93A1.21,1.21,0,0,1,60.76,379.36Z" transform="translate(0 -355.24)"/>
 <rect class="clss-1" width="96.83" height="37.46" rx="18.73"/><path class="clss-2" d="M35.46,379.63a1.34,1.34,0,0,1-1-.35,1.42,1.42,0,0,1-.34-1v-5l.55,1.54L30.61,369a1.13,1.13,0,0,1-.24-.78,1.07,1.07,0,0,1,.36-.73,1.24,1.24,0,0,1,.89-.3,1.41,1.41,0,0,1,.75.2A2.22,2.22,0,0,1,33,368l2.77,4h-.57L38,368a2.48,2.48,0,0,1,.65-.65,1.32,1.32,0,0,1,.75-.2,1.29,1.29,0,0,1,.87.27,1,1,0,0,1,.33.71,1.47,1.47,0,0,1-.28.87l-4,5.78.54-1.54v5A1.21,1.21,0,0,1,35.46,379.63Z" transform="translate(0 -355.24)"/><path class="clss-2" d="M47.08,379.67a6.26,6.26,0,0,1-3.15-.78,5.23,5.23,0,0,1-2.12-2.2,7,7,0,0,1-.75-3.3,7.27,7.27,0,0,1,.43-2.58,5.59,5.59,0,0,1,1.22-2,5.1,5.1,0,0,1,1.91-1.26,6.69,6.69,0,0,1,2.46-.44,6.37,6.37,0,0,1,3.18.77,5.4,5.4,0,0,1,2.11,2.18,6.93,6.93,0,0,1,.75,3.3A7.53,7.53,0,0,1,52.7,376a5.52,5.52,0,0,1-1.23,2,5.16,5.16,0,0,1-1.91,1.27A6.72,6.72,0,0,1,47.08,379.67Zm0-2.27a3.06,3.06,0,0,0,1.74-.48,3.16,3.16,0,0,0,1.11-1.39,5.35,5.35,0,0,0,.39-2.14,4.53,4.53,0,0,0-.86-2.95,2.89,2.89,0,0,0-2.38-1.05,3.18,3.18,0,0,0-1.73.47,2.91,2.91,0,0,0-1.1,1.35,5.46,5.46,0,0,0-.38,2.18,4.6,4.6,0,0,0,.85,2.95A2.86,2.86,0,0,0,47.08,377.4Z" transform="translate(0 -355.24)"/><path class="clss-2" d="M60.42,379.67a7.27,7.27,0,0,1-2.29-.33,4.19,4.19,0,0,1-1.67-1,4.07,4.07,0,0,1-1-1.65,6.92,6.92,0,0,1-.34-2.28v-5.9a1.34,1.34,0,0,1,.35-1,1.33,1.33,0,0,1,1-.34,1.37,1.37,0,0,1,1,.34,1.34,1.34,0,0,1,.34,1v5.9a3.26,3.26,0,0,0,.68,2.24,2.9,2.9,0,0,0,3.89,0,3.26,3.26,0,0,0,.68-2.24v-5.9a1.34,1.34,0,0,1,.34-1,1.37,1.37,0,0,1,1-.34,1.29,1.29,0,0,1,1,.34,1.34,1.34,0,0,1,.34,1v5.9a6.46,6.46,0,0,1-.59,2.9,3.89,3.89,0,0,1-1.77,1.77A6.43,6.43,0,0,1,60.42,379.67Z" transform="translate(0 -355.24)"/>
  

  </svg>
