<svg class="stopper" width="180" height="180" data-name="Layer 1" viewBox="0 0 200 200"><defs><style>.cls-1{fill: #63093f;}</style></defs><circle id="stopwatchbg" cx="100" cy="100" r="44"/>
	<circle id="stopwatchborder" cx="100" cy="100" r="37"/>
		<circle id="stopwatchborder2" cx="100" cy="100" r="49"/>
	<circle id="stopwatchborder3" cx="100" cy="100" r="73"/>
		<circle id="stopwatchborder2" cx="100" cy="100" r="66"/>
<text id="stopwatch-time" x="50%" y="50%" dominant-baseline="central" text-anchor="middle">20</text>

<rect class="cls-1" x="98.52" y="37.23" width="2.95" height="10.25"/><rect class="cls-1" x="98.52" y="152.52" width="2.95" height="10.25"/><rect class="cls-1" x="37.23" y="98.52" width="10.25" height="2.95"/><rect class="cls-1" x="152.52" y="98.52" width="10.25" height="2.95"/><rect class="cls-1" x="69.45" y="47.02" width="2.95" height="5.25" transform="matrix(0.87, -0.5, 0.5, 0.87, -15.32, 42.11)"/><rect class="cls-1" x="127.6" y="147.73" width="2.95" height="5.25" transform="translate(-57.88 84.68) rotate(-30)"/><rect class="cls-1" x="48.17" y="68.3" width="2.95" height="5.25" transform="translate(-36.6 78.46) rotate(-60)"/><rect class="cls-1" x="148.88" y="126.45" width="2.95" height="5.25" transform="translate(-36.6 194.75) rotate(-60)"/><rect class="cls-1" x="47.02" y="127.6" width="5.25" height="2.95" transform="translate(-57.88 42.11) rotate(-30)"/><rect class="cls-1" x="147.73" y="69.45" width="5.25" height="2.95" transform="translate(-15.32 84.68) rotate(-30)"/><rect class="cls-1" x="68.3" y="148.88" width="5.25" height="2.95" transform="translate(-94.75 136.6) rotate(-60)"/><rect class="cls-1" x="126.45" y="48.17" width="5.25" height="2.95" transform="translate(21.54 136.6) rotate(-60)"/>
<circle id="stopwatchload" cx="100" cy="100" r="50"/>
</svg>
