<?xml version="1.0" standalone="no"?>
<!DOCTYPE svg PUBLIC "-//W3C//DTD SVG 20010904//EN"
 "http://www.w3.org/TR/2001/REC-SVG-20010904/DTD/svg10.dtd">
<svg version="1.0" xmlns="http://www.w3.org/2000/svg"
 width="512.000000pt" height="512.000000pt" viewBox="0 0 512.000000 512.000000"
 preserveAspectRatio="xMidYMid meet">
<metadata>
Created by potrace 1.14, written by Peter Selinger 2001-2017
</metadata>
<g transform="translate(0.000000,512.000000) scale(0.100000,-0.100000)"
fill="#000000" stroke="none">
<path d="M756 5082 c-2 -2 -21 -5 -42 -8 -45 -5 -76 -12 -119 -28 -125 -47
-200 -107 -255 -202 -16 -28 -31 -59 -33 -70 -1 -10 -6 -24 -10 -31 -9 -15
-11 -141 -2 -173 4 -14 8 -33 8 -42 1 -10 4 -18 7 -18 4 0 16 -19 28 -42 80
-160 305 -226 478 -142 69 33 83 39 68 27 -22 -16 -74 -140 -82 -193 -10 -69
17 -220 39 -220 5 0 9 -7 9 -15 0 -29 89 -112 156 -145 86 -42 199 -50 278
-19 28 11 56 21 61 22 6 2 26 14 45 27 l35 25 -23 -39 c-41 -70 -56 -126 -55
-212 0 -59 5 -87 18 -107 9 -15 14 -27 11 -27 -4 0 1 -14 10 -31 l16 -31 -97
-94 c-53 -52 -98 -94 -100 -94 -2 0 -17 -12 -33 -27 -16 -16 -41 -37 -56 -48
-14 -11 -32 -25 -39 -31 -7 -6 -51 -38 -97 -72 -47 -34 -90 -66 -97 -72 -7 -5
-15 -10 -18 -10 -8 0 -69 -44 -73 -52 -2 -5 -10 -8 -18 -8 -8 0 -14 -3 -14 -8
0 -4 -15 -14 -32 -21 -18 -8 -38 -22 -45 -30 -7 -9 -13 -12 -13 -8 0 5 -13 -1
-29 -12 -16 -12 -34 -21 -40 -21 -6 0 -11 -3 -11 -8 0 -4 -15 -13 -32 -21 -18
-8 -51 -26 -73 -39 -22 -14 -40 -24 -40 -23 0 1 -53 -23 -119 -53 -65 -31
-121 -56 -123 -56 -17 0 -112 -56 -134 -78 -38 -40 -61 -107 -58 -171 2 -53
34 -141 51 -141 4 0 8 -7 8 -15 0 -8 9 -20 20 -27 11 -7 20 -16 20 -21 0 -4
10 -18 23 -31 12 -13 38 -42 57 -66 19 -24 45 -54 58 -67 13 -12 20 -23 17
-23 -3 0 3 -8 12 -18 22 -23 55 -61 113 -132 25 -30 50 -61 57 -68 7 -7 29
-34 50 -60 21 -26 46 -54 55 -63 10 -9 18 -20 18 -23 0 -4 12 -20 28 -35 15
-15 41 -45 57 -66 17 -21 41 -51 55 -67 14 -15 36 -42 50 -60 14 -17 32 -38
40 -47 8 -9 35 -41 60 -71 25 -30 49 -60 55 -66 12 -14 36 -42 95 -114 66 -80
82 -99 110 -130 44 -49 70 -80 70 -85 0 -3 8 -13 17 -23 41 -43 83 -92 78 -92
-2 0 8 -12 23 -27 15 -16 50 -55 77 -88 28 -33 53 -61 57 -63 5 -2 8 -8 8 -14
0 -6 10 -20 23 -32 12 -12 38 -41 57 -65 53 -66 71 -80 115 -93 22 -6 46 -16
53 -21 7 -6 12 -6 12 0 0 11 29 11 46 0 6 -3 14 -3 18 0 4 4 19 8 34 9 52 5
117 13 120 15 1 1 10 2 20 4 9 1 31 7 47 14 17 7 59 24 94 37 36 13 70 29 78
35 7 6 13 9 13 6 0 -3 39 15 88 40 48 25 103 53 122 63 19 10 38 18 43 19 4 0
17 10 29 21 12 11 25 20 30 20 11 0 201 122 210 135 4 5 8 7 8 3 0 -5 8 -1 18
7 9 9 62 49 117 90 55 40 114 85 130 100 95 81 120 103 152 133 19 17 39 32
45 32 6 0 9 2 6 5 -3 3 25 36 61 73 65 65 151 164 201 231 62 83 71 86 33 12
-36 -70 -38 -78 -38 -171 0 -90 3 -101 35 -164 19 -38 40 -70 47 -73 7 -3 13
-12 13 -21 0 -8 3 -12 7 -9 3 4 12 -1 19 -12 7 -10 44 -34 81 -52 63 -31 75
-34 163 -34 83 0 102 4 155 28 33 15 63 33 67 40 4 6 9 9 11 7 3 -3 -6 -27
-19 -54 -13 -27 -21 -53 -18 -57 3 -5 1 -9 -3 -9 -5 0 -10 -15 -12 -32 -7 -74
-7 -118 -2 -118 3 0 7 -15 8 -34 2 -48 46 -129 98 -182 145 -147 391 -139 544
18 28 29 107 168 95 168 -2 0 2 13 11 30 8 16 15 32 15 35 0 3 0 6 1 8 14 51
18 276 5 337 -4 19 -9 40 -10 45 -22 105 -111 309 -175 403 -22 33 -41 65 -41
70 0 6 -7 13 -16 16 -9 4 -14 9 -11 12 3 4 1 12 -6 19 -7 7 -41 45 -77 85 -89
101 -195 199 -270 250 -52 35 -70 52 -65 60 14 23 405 237 405 223 0 -4 8 1
18 10 10 10 22 14 25 10 4 -3 7 0 7 7 0 7 2 11 6 8 3 -3 44 12 92 33 48 21 95
39 105 39 9 0 17 5 17 12 0 6 2 9 6 6 3 -3 49 9 102 27 53 18 111 35 127 39
34 8 71 38 100 81 30 45 28 175 -3 230 -33 59 -45 78 -62 95 -82 82 -196 222
-192 234 2 6 1 8 -3 4 -4 -4 -47 41 -97 100 -49 59 -99 118 -111 132 -13 14
-58 68 -102 120 -44 52 -83 97 -87 98 -5 2 -8 10 -8 18 0 8 -4 14 -8 14 -5 0
-31 28 -59 63 -28 34 -60 71 -70 82 -10 11 -47 56 -83 99 -36 44 -78 93 -93
110 -33 37 -39 44 -103 121 -27 33 -53 65 -59 71 -5 6 -28 33 -50 59 -22 26
-67 80 -100 119 -33 39 -64 77 -70 84 -5 7 -27 31 -47 53 -21 22 -38 42 -38
45 0 3 -6 11 -12 18 -14 14 -73 83 -113 133 -62 77 -220 84 -430 17 -27 -8
-59 -17 -70 -20 -11 -2 -21 -8 -23 -14 -2 -6 -7 -8 -12 -5 -4 3 -33 -6 -64
-20 -31 -14 -57 -25 -59 -24 -7 2 -160 -63 -167 -70 -3 -4 -10 -7 -15 -8 -27
-4 -218 -103 -223 -115 -2 -5 -8 -8 -14 -8 -5 0 -22 -9 -38 -20 -15 -11 -30
-17 -33 -13 -4 3 -9 -2 -13 -11 -3 -9 -10 -16 -15 -16 -13 0 -114 -66 -201
-131 -42 -31 -79 -55 -82 -51 -3 3 -6 15 -6 27 0 13 -7 28 -15 35 -8 7 -15 18
-15 25 0 16 -42 98 -55 107 -7 5 -7 8 0 8 6 0 1 7 -9 15 -11 8 -16 15 -12 15
8 0 -55 93 -67 98 -4 2 -5 8 -1 13 3 5 0 9 -5 9 -6 0 -11 7 -11 16 0 8 -4 13
-8 10 -4 -2 -19 12 -32 32 -32 47 -179 196 -245 247 -27 22 -52 42 -55 46 -9
12 -170 109 -180 109 -5 0 -10 3 -10 8 0 12 -150 76 -150 64 0 -4 -4 -2 -8 3
-13 18 -141 54 -252 70 -51 8 -169 12 -174 7z"/>
</g>
</svg>
